<svg xmlns="http://www.w3.org/2000/svg" viewBox="0 0 927 1017" width="927" height="1017">
	<style>
		tspan { white-space:pre }
		.shp0 { fill: #f4fafe } 
	</style>
	<g id="Hero">
		<path id="Bg. Shape" class="shp0" d="M926 33.31C836.72 42.22 812.34 130.26 607.72 51.7C478.05 1.92 399.05 45.12 363.72 59.31C345.19 66.76 327.84 77.59 313.26 91.7C277.78 126.03 269.33 178.98 284.37 228.7L284.35 228.71C292.21 255.36 286.09 287.23 265.31 313.21C241.97 342.37 206.57 356.08 175.09 351.27C165.52 349.35 155.6 348.33 145.41 348.33C66.16 348.33 1.19 409.42 1.19 486.11C1.19 522.2 15.41 555.06 38.73 579.75C56.18 599.27 67.08 626.87 67.08 657.5C67.08 683.13 59.44 706.65 46.72 725.08C26.58 749.16 14.63 779.13 14.63 811.62C14.63 891.09 86.1 955.51 174.27 955.51C203.61 955.51 231.1 948.37 254.73 935.92C292.99 917.9 341.23 907.15 393.66 907.15C473.51 907.15 543.65 932.07 583.63 969.65L583.64 969.64C615.37 998.18 658.59 1015.74 706.22 1015.74C771.26 1015.74 828.06 983.01 858.64 934.29C867.77 921.81 894.85 889.69 926 898.61L926 33.31Z" />
	</g>
</svg>